<?xml version="1.0" encoding="UTF-8"?>
<svg xmlns="http://www.w3.org/2000/svg" viewBox="0 0 1200 240" preserveAspectRatio="xMidYMid slice">
  <defs>
    <linearGradient id="bg" x1="0" y1="0" x2="1" y2="1">
      <stop offset="0%" stop-color="#0b1d3a"/>
      <stop offset="55%" stop-color="#1a3a8f"/>
      <stop offset="100%" stop-color="#5b2db8"/>
    </linearGradient>
    <radialGradient id="orb" cx="50%" cy="50%" r="50%">
      <stop offset="0%" stop-color="#fff" stop-opacity="0.9"/>
      <stop offset="35%" stop-color="#9ad8ff" stop-opacity="0.55"/>
      <stop offset="100%" stop-color="#9ad8ff" stop-opacity="0"/>
    </radialGradient>
  </defs>
  <rect width="1200" height="240" fill="url(#bg)"/>
  <g fill="#fff">
    <circle cx="120" cy="60" r="1.2" opacity="0.7"/>
    <circle cx="200" cy="120" r="0.9" opacity="0.5"/>
    <circle cx="320" cy="80" r="1.4" opacity="0.8"/>
    <circle cx="430" cy="40" r="0.8" opacity="0.6"/>
    <circle cx="550" cy="90" r="1.1" opacity="0.7"/>
    <circle cx="680" cy="55" r="0.7" opacity="0.5"/>
    <circle cx="800" cy="130" r="1.5" opacity="0.9"/>
    <circle cx="920" cy="70" r="1.0" opacity="0.6"/>
    <circle cx="1060" cy="110" r="1.2" opacity="0.7"/>
    <circle cx="1150" cy="40" r="0.9" opacity="0.5"/>
    <circle cx="80" cy="200" r="0.8" opacity="0.6"/>
    <circle cx="250" cy="280" r="1.0" opacity="0.7"/>
    <circle cx="400" cy="240" r="0.9" opacity="0.6"/>
    <circle cx="780" cy="270" r="1.1" opacity="0.7"/>
    <circle cx="1000" cy="220" r="0.8" opacity="0.5"/>
  </g>
  <circle cx="1060" cy="105" r="65" fill="url(#orb)"/>
  <ellipse cx="1060" cy="105" rx="30" ry="7" fill="#9ad8ff" opacity="0.75"/>
  <ellipse cx="1060" cy="105" rx="42" ry="2.5" fill="#fff" opacity="0.5"/>
  <g font-family="Helvetica, Arial, sans-serif" fill="#fff">
    <text x="60" y="115" font-size="50" font-weight="800" letter-spacing="2">🛸 SCIENCE BOB NEWS</text>
    <text x="62" y="155" font-size="24" font-weight="500" opacity="0.92" letter-spacing="3">UAP / UFO / USO SITREP</text>
    <text x="62" y="195" font-size="16" opacity="0.7" letter-spacing="2">FREE • OPEN • RELIABILITY-SCORED • SOURCES CREDITED</text>
  </g>
</svg>
